#!OML:ASF F:\VICON\USERDATA\INSTALL\rory3\rory3.ASF
:FULLY-SPECIFIED
:DEGREES
19
root -0.6419760317479691 17.68320093248506 -13.63869065038759 -1.443402326311638 6.873764402984101 -3.8860754810843834
lfemur -23.751495920870408 -3.5018230004608584 -21.614798867659587
ltibia 40.959604633339474
lfoot -11.770491996728364 -10.71139388743888
ltoes -1.5494390239154843
rfemur -7.6380753301989905 -2.109073517608749 27.04960375529271
rtibia 96.09898865247399
rfoot 21.073189087599005 -13.16358962457693
rtoes 16.75529106259753
lowerback 16.497294635484977 1.0708685913804965 2.7687665359482985
upperback -0.08104018777185096 2.0672180383900507 1.1520152444739202
thorax -9.314926447008249 0.8915203793086182 -0.8248265632379427
lowerneck -18.957109094300737 -5.346237068944437 -1.6914257463877636
upperneck 15.2428908125415 -7.620285747627456 4.051617609656949
head 8.059281610746092 -3.300166925302631 0.6760169325131471
lclavicle -1.7288339579140553e-15 1.783627740629379e-15
lhumerus -61.08469310126232 -12.545202548319788 100.14099148708108
lradius 104.07300444904128
lwrist 33.45060031305122
lhand -25.856195481089546 0.7974909758354536
lfingers 7.12502
lthumb 0.684611519400963 30.77610395177544
rclavicle -1.7288339579140553e-15 1.783627740629379e-15
rhumerus -48.45430221697046 14.403489815674888 -101.75298744529049
rradius 104.67300786406638
rwrist -7.877918230301855
rhand -19.721584468400557 40.739094005457744
rfingers 7.12502
rthumb 6.608565532168662 10.86219468936517
20
root -0.6466339103870664 17.47490431414389 -12.685891039268492 -1.142003884183656 6.63226503288362 -2.5196102223006083
lfemur -22.37229655418441 -3.797762318587235 -23.29889628152626
ltibia 45.081003001255546
lfoot -17.15248826865023 -7.689818902664648
ltoes 2.0965073225176187
rfemur -13.30770288516755 -3.7861098897905276 23.90240920158558
rtibia 102.40698647708163
rfoot 20.9978891398462 -9.95280439973143
rtoes 15.041692191438207
lowerback 16.84359273138025 1.0303288417645033 0.9001372992779871
upperback 0.15045853836227496 1.6215396971318086 0.8064198388995274
thorax -9.309296525011272 0.7562996184504949 -0.03689989538283012
lowerneck -19.70270474383185 -5.254087752484087 -1.3674711134684912
upperneck 15.087891778435758 -7.553946082323309 3.969378362841346
head 8.117170200135464 -3.248607496699133 0.5904370412084002
lclavicle -1.7288340642170575e-15 1.7836277577894746e-15
lhumerus -56.90879589786926 -14.232599849969652 100.17699136519632
lradius 104.53000395767764
lwrist 34.90129571553891
lhand -24.961000402569145 0.056295737182686656
lfingers 7.12502
lthumb 1.5492695971520145 30.030406436413436
rclavicle -1.7288340642170575e-15 1.7836277577894746e-15
rhumerus -49.23730147087694 13.324791676259078 -101.86498716016362
rradius 101.65501299726837
rwrist -6.520573173385253
rhand -22.246571700123983 37.443715014804695
rfingers 7.12502
rthumb 4.170698307340958 7.504846518230566
21
root -0.5450624464110309 17.235001534156208 -2.678363023862138 0.7799900772878554 4.610661351075047 -0.36819052768619187
lfemur -19.570104914798478 0.22291977856798556 -25.63246935997661
ltibia 53.09825490898284
lfoot -18.209167514710025 -1.1995073055250796
ltoes 1.3953442440272674
rfemur -19.30650690580458 -4.48798555160873 22.5178999002223
rtibia 113.59364964274044
rfoot 13.799776852281258 -7.70683155113751
rtoes 21.94205142429553
lowerback 17.505506228785634 1.6289132070007182 -1.406258044512027
upperback -0.17611793515270513 1.9404439136233804 0.0010637437938436634
thorax -10.246860778596991 0.9797087748964748 0.9437755309699851
lowerneck -20.76776394658815 -4.881269337337326 -1.5293772843906672
upperneck 13.94051560083836 -6.905168978211976 3.921914111646366
head 7.866333872285033 -2.9838876300614823 0.8497260606309465
lclavicle -9.179143271586457e-16 2.3721802381165967e-15
lhumerus -51.45673205555628 -18.638467341207686 100.82822824468394
lradius 106.66094597119566
lwrist 32.63915576187161
lhand -25.227484912229972 4.514842278234723
lfingers 7.12502
lthumb 1.2918536321169312 34.48149646093396
rclavicle -9.179143271586457e-16 2.3721802381165967e-15
rhumerus -48.564022029562416 8.008009023113303 -100.59393759668887
rradius 101.17212630010535
rwrist -7.597385461022071
rhand -18.116977645520027 38.691887346297975
rfingers 7.12502
rthumb 8.156889431207587 8.73552007130131
22
root -0.5021130734000289 17.09863627800768 -6.505677115493915 1.5265404418397899 3.9696865692831755 0.5609476749584097
lfemur -17.397316935690032 0.22652386187228973 -26.57475317254906
ltibia 53.1155103805547
lfoot -21.931514098903108 1.6365495176742284
ltoes -0.1807482718308311
rfemur -27.364820672963308 -5.764403835833292 20.803122285187804
rtibia 119.96316820068665
rfoot 11.120542817215417 -6.331210073942351
rtoes 18.461481884332862
lowerback 17.90304091393496 1.541723771560768 -2.649602179109004
upperback -0.09964547920473632 1.576618440241321 -0.24025814776769883
thorax -10.462638857253049 0.8643022749089209 1.5028802467725684
lowerneck -21.371043039853877 -4.663653314523377 -1.5254319666606748
upperneck 13.32502877886479 -6.5832191856428155 4.037643636636584
head 7.7559162909132855 -2.824729913241704 0.9232979791638263
lclavicle -1.3250985552444639e-15 2.0766258631184054e-15
lhumerus -46.8754826494723 -20.73858642083303 101.11914425981473
lradius 106.51502311624971
lwrist 32.373813131532444
lhand -24.976462146637182 3.9358446925228594
lfingers 7.12502
lthumb 1.5342953937705865 33.89902762583444
rclavicle -1.3250985552444639e-15 2.0766258631184054e-15
rhumerus -50.03750178376683 6.729858849684107 -100.94452871696517
rradius 100.06189759269239
rwrist -8.45129452180788
rhand -17.61735617384904 38.64919679888134
rfingers 7.12502
rthumb 8.638800662322678 8.70679113817877
23
root -0.46935885190172566 16.999099412932836 -7.82028126139725 2.175901446529222 3.3630189115290707 0.7667714402023056
lfemur -15.325406551620427 -0.33798097641648184 -27.13993021956923
ltibia 51.49593470499587
lfoot -24.021626770717084 2.837513023519512
ltoes -3.2238918692996483
rfemur -34.54073369725537 -6.430083421012039 19.96805084904861
rtibia 119.23839512110052
rfoot 7.609090052792618 -5.514273976286118
rtoes 14.740705108094401
lowerback 17.935012068835437 1.241112766321789 -3.373225758015069
upperback -0.23392317284760966 1.0373903686451853 -0.28715353863958404
thorax -10.636981989946031 0.6518625075248617 1.81148549119307
lowerneck -21.839404591287572 -4.449614759574305 -1.5492502801640113
upperneck 12.957693176715543 -6.280089376187105 3.963764765123684
head 7.687769359528549 -2.6774761428630023 0.9330563366668507
lclavicle -2.755976591665212e-15 1.038818414687807e-15
lhumerus -43.41680711847006 -22.184454090741404 100.83107071275795
lradius 106.89123542939294
lwrist 32.0392428738577
lhand -24.94805995096585 3.036506184855315
lfingers 7.12502
lthumb 1.561746536188109 33.00063178558495
rclavicle -2.755976591665212e-15 1.038818414687807e-15
rhumerus -52.36252389706076 5.87847946282565 -101.26409068264076
rradius 100.1712754384522
rwrist -9.600892751243
rhand -17.19132750379159 38.67226752204108
rfingers 7.12502
rthumb 9.049795261179996 8.761023633344973
24
root -0.44277552104267215 17.015936401410098 -6.487850135327976 2.805257830032355 3.454107829130019 0.8893980848542697
lfemur -12.062998782077848 -0.5739167011474318 -27.11675209447133
ltibia 49.75144723353226
lfoot -24.35527878454318 3.7410070430733944
ltoes -7.6966607584035405
rfemur -39.319932038203945 -6.773230530575681 20.188171657832825
rtibia 118.36958320499065
rfoot 6.1031645812246476 -5.297559128195795
rtoes 12.389740648342443
lowerback 17.801793607815224 0.8882202934024294 -3.6306590935886236
upperback -0.38875061143680745 0.5119120915492048 -0.09379319744355574
thorax -10.65610418404132 0.4321711091687055 2.34923859177668
lowerneck -22.050096134849525 -4.2300035662314714 -1.5924162706200056
upperneck 12.781001729393587 -5.940830269106247 3.9044859290408107
head 7.643300670635809 -2.5231081719549557 0.9588105608960389
lclavicle -2.6773303158811233e-15 1.0960882948782957e-15
lhumerus -40.15981642104506 -22.330232090803648 100.24459088799382
lradius 108.74650962893598
lwrist 32.058426949544184
lhand -24.833079754955897 3.0317684403910494
lfingers 7.12502
lthumb 1.6727958816492143 32.99794111214603
rclavicle -2.6773303158811233e-15 1.0960882948782957e-15
rhumerus -54.04790060052583 6.178488481432252 -101.48814042131649
rradius 101.38163531562871
rwrist -10.846281418173927
rhand -16.739422307589514 38.851837590334554
rfingers 7.12502
rthumb 9.485848169007584 8.899554082820352
